<?xml version="1.0" standalone="no"?>
<!DOCTYPE svg PUBLIC "-//W3C//DTD SVG 20010904//EN"
 "http://www.w3.org/TR/2001/REC-SVG-20010904/DTD/svg10.dtd">
<svg version="1.0" xmlns="http://www.w3.org/2000/svg"
 width="824.000000pt" height="351.000000pt" viewBox="0 0 824.000000 351.000000"
 preserveAspectRatio="xMidYMid meet">

<g transform="translate(0.000000,351.000000) scale(0.100000,-0.100000)"
fill="#000000" stroke="none">
<path d="M379 3436 c-5 -5 -233 -52 -309 -63 -65 -10 -78 -33 -30 -53 39 -16
77 -61 90 -108 8 -26 10 -281 8 -827 -3 -777 -3 -791 -24 -835 -11 -25 -28
-51 -37 -59 -58 -47 22 -54 182 -15 127 30 164 28 286 -17 85 -31 97 -33 230
-33 154 -1 205 10 323 67 80 39 195 144 251 230 84 129 130 314 116 471 -16
183 -75 324 -184 435 -111 113 -236 162 -410 163 -151 0 -254 -42 -375 -153
l-66 -61 0 431 0 431 -23 0 c-13 0 -26 -2 -28 -4z m508 -766 c97 -43 181 -162
224 -316 27 -100 37 -334 19 -456 -46 -320 -241 -491 -477 -420 -79 24 -143
74 -173 133 -44 85 -50 144 -50 514 0 394 -7 359 84 453 91 94 161 125 266
116 35 -3 84 -13 107 -24z"/>
<path d="M4659 3208 c-191 -17 -399 -136 -516 -294 -97 -131 -128 -226 -120
-364 2 -47 7 -92 11 -100 4 -10 -10 -37 -40 -75 -98 -126 -144 -256 -144 -404
1 -164 57 -287 191 -416 227 -217 538 -285 776 -169 68 33 151 100 186 151
l28 40 97 6 c57 3 124 13 162 26 193 61 363 231 431 431 30 89 38 260 15 349
-34 132 -127 280 -225 357 -55 43 -155 96 -203 108 -19 4 -34 19 -49 49 -61
119 -191 235 -312 277 -73 26 -189 37 -288 28z m214 -103 c83 -21 158 -68 222
-137 67 -72 90 -115 116 -216 57 -223 27 -472 -90 -743 -49 -112 -152 -299
-169 -306 -21 -9 -228 101 -332 175 -104 74 -271 233 -341 327 -56 74 -129
194 -129 212 0 42 165 190 269 243 96 48 163 63 260 58 103 -6 161 -29 226
-89 76 -70 100 -120 100 -209 0 -59 -5 -85 -24 -125 -34 -69 -100 -131 -177
-167 -56 -26 -74 -30 -127 -26 -72 4 -151 39 -180 79 -48 67 -22 188 58 273
58 60 136 92 190 78 38 -11 34 -25 -9 -34 -53 -11 -95 -44 -117 -92 -57 -125
20 -240 145 -217 76 14 130 64 156 145 26 82 -16 196 -93 251 -37 26 -50 30
-107 29 -121 -1 -237 -80 -297 -201 -24 -50 -28 -70 -28 -144 0 -77 3 -90 28
-128 37 -56 118 -106 195 -121 119 -24 252 22 353 120 154 151 166 357 29 519
-139 165 -373 198 -605 86 -78 -37 -212 -138 -247 -185 -12 -16 -26 -30 -31
-30 -6 0 -8 33 -5 79 5 93 38 169 113 264 147 185 433 288 648 232z m622 -469
c100 -98 165 -253 165 -396 0 -295 -264 -569 -547 -570 -69 0 -74 6 -45 48 37
53 113 201 156 305 85 202 112 342 102 534 -3 71 -9 145 -12 167 l-6 38 62
-33 c34 -18 90 -60 125 -93z m-657 -208 c7 -7 12 -31 12 -54 0 -36 -5 -47 -40
-78 -40 -36 -56 -41 -98 -29 -50 13 -46 104 6 141 43 31 100 40 120 20z m-709
-163 c153 -245 431 -487 707 -616 l105 -49 -41 -44 c-76 -81 -212 -136 -336
-136 -176 0 -406 117 -527 269 -101 127 -126 281 -69 443 28 82 93 198 111
198 5 0 27 -29 50 -65z"/>
<path d="M6320 2793 c-123 -11 -221 -49 -293 -113 -63 -56 -94 -105 -113 -183
-48 -185 48 -343 278 -455 57 -28 123 -58 148 -67 59 -21 166 -86 209 -126 44
-42 61 -86 61 -154 0 -93 -37 -156 -115 -198 -32 -18 -57 -22 -130 -22 -82 0
-97 3 -159 34 -116 57 -218 183 -267 328 -12 38 -26 63 -35 63 -12 0 -14 -33
-14 -192 l0 -193 51 -23 c148 -65 400 -92 552 -58 153 34 272 121 332 241 27
54 30 69 30 155 -1 73 -5 103 -19 130 -55 103 -154 180 -345 265 -238 107
-300 147 -338 219 -21 40 -21 142 -1 181 51 96 190 140 311 99 92 -31 198
-154 253 -294 15 -39 32 -69 38 -67 17 6 20 356 4 361 -7 2 -54 16 -104 30
-73 21 -270 51 -294 44 -3 -1 -21 -3 -40 -5z"/>
<path d="M7540 2790 c-79 -10 -181 -47 -252 -93 -83 -53 -183 -168 -228 -261
-60 -125 -74 -190 -74 -351 -1 -120 2 -151 22 -215 88 -282 321 -450 621 -450
171 0 286 39 403 134 104 85 212 266 158 266 -4 0 -22 -22 -39 -49 -49 -76
-128 -145 -196 -170 -91 -35 -186 -46 -270 -33 -100 16 -157 43 -225 108 -104
99 -160 254 -160 444 l0 90 445 0 445 0 0 58 c0 75 -32 199 -67 264 -37 68
-102 139 -163 178 -102 65 -273 98 -420 80z m186 -69 c41 -19 88 -70 119 -131
28 -55 45 -127 52 -227 l6 -93 -296 0 -297 0 0 41 c0 100 64 261 134 337 77
85 191 114 282 73z"/>
<path d="M3555 2759 c-71 -35 -160 -120 -216 -204 l-40 -60 3 143 c3 127 1
142 -14 142 -9 0 -63 -15 -120 -34 -57 -19 -132 -40 -168 -47 -89 -16 -100
-27 -63 -59 71 -60 68 -36 71 -529 2 -287 -1 -462 -8 -494 -14 -65 -40 -100
-95 -126 -25 -12 -45 -26 -45 -31 0 -6 108 -10 300 -10 192 0 300 4 300 10 0
5 -20 19 -45 31 -59 28 -91 67 -104 129 -17 79 -14 648 4 732 33 158 113 258
206 258 27 0 43 -11 95 -65 58 -60 66 -65 106 -65 88 0 144 67 136 165 -8 97
-67 145 -180 145 -50 0 -75 -6 -123 -31z"/>
<path d="M1490 2746 c0 -8 20 -26 45 -41 66 -38 94 -84 180 -288 42 -100 153
-361 247 -581 l170 -399 -11 -54 c-17 -85 -102 -253 -150 -296 -53 -48 -110
-52 -144 -11 -68 83 -74 87 -131 82 -66 -5 -112 -36 -125 -83 -30 -110 81
-216 213 -202 62 6 103 25 165 75 91 74 168 208 275 478 59 150 124 309 261
639 48 116 112 271 142 345 31 74 68 160 83 191 27 52 98 129 120 129 6 0 10
7 10 15 0 13 -26 15 -192 13 -142 -2 -192 -6 -195 -15 -3 -7 8 -18 24 -24 35
-13 70 -45 89 -81 24 -46 17 -124 -20 -228 -64 -182 -239 -611 -249 -607 -10
3 -45 84 -209 475 -122 294 -136 347 -98 395 12 15 38 36 58 45 81 39 60 42
-257 42 -252 0 -301 -2 -301 -14z"/>
<path d="M3470 980 l0 -50 -35 0 c-33 0 -35 -2 -35 -35 0 -33 2 -35 35 -35
l35 0 0 -134 c0 -119 2 -136 20 -159 26 -33 80 -50 129 -42 52 9 72 25 65 51
-5 18 -13 21 -67 20 -55 -1 -62 1 -74 24 -8 16 -13 65 -13 133 l0 107 64 0
c36 0 67 3 69 8 3 4 3 19 0 35 -5 26 -8 27 -69 27 l-64 0 0 50 c0 49 -1 50
-30 50 -29 0 -30 -1 -30 -50z"/>
<path d="M2932 921 c-56 -26 -80 -76 -63 -132 14 -46 54 -72 136 -89 101 -21
130 -54 85 -95 -28 -25 -103 -23 -164 3 l-47 21 -9 -25 c-6 -14 -8 -30 -4 -35
12 -21 83 -42 144 -43 84 -1 136 23 157 73 33 78 -14 139 -125 162 -73 15
-112 35 -112 57 0 55 75 77 160 46 44 -16 52 -16 61 -4 25 40 -19 70 -115 77
-47 3 -71 -1 -104 -16z"/>
<path d="M4032 929 c-48 -14 -106 -77 -122 -132 -44 -158 86 -299 245 -266 86
17 144 86 152 179 15 161 -116 265 -275 219z m138 -67 c43 -21 70 -72 70 -130
0 -71 -39 -126 -102 -143 -32 -8 -46 -6 -83 10 -56 25 -85 70 -85 131 0 115
101 182 200 132z"/>
<path d="M4734 929 c-17 -5 -43 -20 -57 -33 l-26 -24 -3 27 c-2 21 -9 27 -35
29 l-33 3 0 -200 0 -201 35 0 35 0 0 114 c0 63 5 127 11 143 16 43 49 73 80
73 47 0 59 10 59 46 0 37 -8 40 -66 23z"/>
<path d="M5155 925 c-104 -37 -155 -173 -106 -281 51 -113 212 -157 319 -88
26 17 27 23 8 50 -14 18 -16 18 -43 2 -79 -46 -178 -26 -213 43 -11 21 -20 43
-20 48 0 7 59 12 158 13 l157 3 3 27 c2 14 -2 45 -8 67 -28 106 -140 157 -255
116z m135 -60 c35 -18 60 -52 60 -82 0 -23 -2 -23 -126 -23 l-126 0 6 28 c4
15 22 42 41 60 40 37 94 43 145 17z"/>
<path d="M2462 554 c-15 -10 -22 -25 -22 -48 0 -82 110 -91 126 -11 11 58 -53
95 -104 59z"/>
<path d="M2483 265 c-17 -7 -37 -23 -43 -36 -18 -33 -14 -98 7 -121 78 -87
209 -46 205 64 -2 48 -18 74 -58 93 -39 18 -69 18 -111 0z m107 -88 c0 -18 -4
-37 -8 -43 -26 -39 -92 -14 -92 35 0 31 13 46 45 53 34 8 55 -10 55 -45z"/>
<path d="M2768 195 l-5 -25 1343 0 c1273 0 1342 1 1339 18 -2 9 -4 20 -4 25
-1 4 -601 7 -1335 7 l-1334 0 -4 -25z"/>
</g>
</svg>
